<svg xmlns="http://www.w3.org/2000/svg">

    <!-- Total SMS -->
    <symbol id="totalsms" x="0px" y="0px" viewBox="0 0 496 496" style="enable-background:new 0 0 496 496;" xml:space="preserve">
        <title>Total SMS</title>
        <desc>Total SMS</desc>
        <path style="fill:#8C95A4;" d="M248,8H40C22.328,8,8,22.328,8,40v416c0,17.672,14.328,32,32,32h208c17.672,0,32-14.328,32-32V312
        V120V40C280,22.328,265.672,8,248,8z" />
        <rect x="8" y="72" style="fill:#39C3FC;" width="272" height="352" />
        <rect x="8" y="392" style="fill:#148CE0;" width="272" height="32" />
        <path style="fill:#ECECEC;" d="M184,136v120l-56,56h344c8.84,0,16-7.16,16-16V136c0-8.84-7.16-16-16-16H200
        C191.16,120,184,127.16,184,136z" />
        <polygon style="fill:#148CE0;" points="128,312 280,344 280,312 " />
        <path d="M472,112H288V40c0-22.056-17.944-40-40-40H40C17.944,0,0,17.944,0,40v416c0,22.056,17.944,40,40,40h208
        c22.056,0,40-17.944,40-40V336h-16v80H16V80h256v32h-72c-13.232,0-24,10.768-24,24v116.688L108.688,320H472
        c13.232,0,24-10.768,24-24V136C496,122.768,485.232,112,472,112z M272,432v24c0,13.232-10.768,24-24,24H40
        c-13.232,0-24-10.768-24-24v-24H272z M16,64V40c0-13.232,10.768-24,24-24h208c13.232,0,24,10.768,24,24v24H16z M480,296
        c0,4.416-3.584,8-8,8H147.312L192,259.312V136c0-4.416,3.584-8,8-8h272c4.416,0,8,3.584,8,8V296z" />
        <path d="M416,176c8.824,0,16,7.176,16,16h16c0-17.648-14.352-32-32-32s-32,14.352-32,32s14.352,32,32,32c8.824,0,16,7.176,16,16
        s-7.176,16-16,16s-16-7.176-16-16h-16c0,17.648,14.352,32,32,32s32-14.352,32-32s-14.352-32-32-32c-8.824,0-16-7.176-16-16
        S407.176,176,416,176z" />
        <path d="M256,176c8.824,0,16,7.176,16,16h16c0-17.648-14.352-32-32-32s-32,14.352-32,32s14.352,32,32,32c8.824,0,16,7.176,16,16
        s-7.176,16-16,16s-16-7.176-16-16h-16c0,17.648,14.352,32,32,32s32-14.352,32-32s-14.352-32-32-32c-8.824,0-16-7.176-16-16
        S247.176,176,256,176z" />
        <polygon points="336,199.016 326.248,160 304,160 304,264 320,264 320,200.984 336,264.984 352,200.984 352,264 368,264 368,160 
        345.752,160 " />
        <rect x="112" y="448" width="64" height="16" />
        <rect x="240" y="336" width="16" height="16" />
        <rect x="208" y="336" width="16" height="16" />
        <rect x="176" y="336" width="16" height="16" />
        <rect x="144" y="336" width="16" height="16" />
    </symbol>


    <!-- Total Email -->
    <symbol id="totalemail" x="0px" y="0px" viewBox="0 0 512 512" style="enable-background:new 0 0 512 512;" xml:space="preserve">
        <title>Total Email</title>
        <desc>Total Email</desc>
        <g>
            <g>
                <path d="m43.573 247.984v232.468c0 13.282 10.767 24.048 24.048 24.048h336.677c13.282 0 24.048-10.767 24.048-24.048v-232.468z" fill="#ffdc78" />
                <path d="m396.283 218.592h-320.646l-32.064 29.392 32.064 29.392h320.645l32.065-29.392z" fill="#ffbe45" />
                <path d="m192.626 367.868c24.518-22.475 62.149-22.475 86.667 0l26.929-7.936 90.06-82.555v-189.716c0-4.427-3.589-8.016-8.016-8.016h-304.613c-4.427 0-8.016 3.589-8.016 8.016v189.715l107.854 98.866z" fill="#f7f0d7" />
                <path d="m61.062 488.468-10.109 9.267c4.325 4.171 10.184 6.766 16.668 6.766h336.677c6.484 0 12.343-2.594 16.668-6.766l-10.109-9.267z" fill="#ffdc78" />
                <circle cx="396.282" cy="79.645" fill="#ff7e8e" r="72.145" />
                <path d="m412.387 135.686c-39.844 0-72.145-32.301-72.145-72.145 0-15.81 5.145-30.384 13.768-42.272-18.072 13.111-29.873 34.342-29.873 58.377 0 39.844 32.3 72.145 72.145 72.145 24.035 0 45.266-11.8 58.377-29.873-11.888 8.624-26.463 13.768-42.272 13.768z" fill="#fb5f7a" />
                <path d="m296.762 351.258c-11.445-10.49-24.017-17.621-37.38-21.199-24.228-6.47-49.091-2.838-70.032 10.22-3.39 2.11-7.46 1.879-10.13-.571l-74.337-68.145c-3.304-3.026-5.198-7.335-5.198-11.817v-180.101h-16.032c-4.427 0-8.016 3.589-8.016 8.016v189.715l107.854 98.866 9.136-8.374c24.518-22.475 62.149-22.475 86.667 0l9.136 8.374c5.691-5.217 11.693-10.719 17.794-16.311z" fill="#fae6c2" />
                <path d="m306.222 359.931c-6.1 5.592-12.102 11.095-17.794 16.311v.004l113.682 104.206h-311.697c-5.088 0-7.006-3.91-7.476-5.112-.462-1.198-1.691-5.378 2.059-8.815l98.495-90.283-17.794-16.311-84.643 77.587c-3.578 3.268-7.523 1.926-8.65 1.429-1.119-.493-4.783-2.482-4.783-7.335v-172.453l-12.187-11.175h-11.861v232.468c0 13.282 10.767 24.048 24.048 24.048h336.677c13.282 0 24.048-10.767 24.048-24.048v-8.586z" fill="#ffcc5c" />
            </g>
            <g>
                <path d="m403.782 215.292v-31.437c0-4.142-3.358-7.5-7.5-7.5s-7.5 3.358-7.5 7.5v90.222l-80.066 73.395c-3.053 2.799-3.26 7.543-.461 10.597 1.479 1.614 3.501 2.432 5.531 2.432 1.811 0 3.626-.652 5.066-1.971l101.995-93.496v215.418c0 2.104-.41 4.11-1.129 5.963l-135.357-124.076c-13.245-12.141-30.434-18.827-48.401-18.827s-35.157 6.687-48.401 18.827l-4.068 3.729-100.354-91.99v-186.417c0-.285.231-.516.516-.516h208.419c4.142 0 7.5-3.358 7.5-7.5s-3.358-7.5-7.5-7.5h-208.419c-8.556 0-15.516 6.96-15.516 15.516v127.631l-29.632 27.163c-1.55 1.421-2.432 3.426-2.432 5.529v232.468c0 17.396 14.152 31.548 31.548 31.548h336.677c17.396 0 31.548-14.152 31.548-31.548v-232.468c0-2.102-.882-4.108-2.432-5.529zm0 45.035v-24.687l13.465 12.343zm-351.58 226.089c-.719-1.853-1.13-3.86-1.13-5.964v-215.419l121.319 111.209zm15.935-250.775v24.686l-13.465-12.343zm-.516 261.359c-1.441 0-2.832-.204-4.165-.552l134.238-123.052c10.471-9.599 24.061-14.885 38.266-14.885s27.794 5.286 38.266 14.885l134.239 123.052c-1.334.348-2.725.552-4.166.552z" />
                <path d="m396.282 0c-43.917 0-79.645 35.729-79.645 79.645s35.729 79.646 79.645 79.646 79.645-35.729 79.645-79.646-35.728-79.645-79.645-79.645zm0 144.291c-35.646 0-64.645-29-64.645-64.646s29-64.645 64.645-64.645 64.645 29 64.645 64.645-28.999 64.646-64.645 64.646z" />
                <path d="m396.282 95.161c4.142 0 7.5-3.358 7.5-7.5v-40.08c0-4.142-3.358-7.5-7.5-7.5s-7.5 3.358-7.5 7.5v40.081c0 4.141 3.358 7.499 7.5 7.499z" />
                <path d="m396.362 104.209h-.08c-4.142 0-7.46 3.358-7.46 7.5s3.398 7.5 7.54 7.5 7.5-3.358 7.5-7.5-3.358-7.5-7.5-7.5z" />
                <path d="m324.137 160.323h-176.355c-4.142 0-7.5 3.358-7.5 7.5s3.358 7.5 7.5 7.5h176.355c4.142 0 7.5-3.358 7.5-7.5s-3.358-7.5-7.5-7.5z" />
                <path d="m324.137 200.403h-176.355c-4.142 0-7.5 3.358-7.5 7.5s3.358 7.5 7.5 7.5h176.355c4.142 0 7.5-3.358 7.5-7.5s-3.358-7.5-7.5-7.5z" />
                <path d="m324.137 240.484h-176.355c-4.142 0-7.5 3.358-7.5 7.5s3.358 7.5 7.5 7.5h176.355c4.142 0 7.5-3.358 7.5-7.5s-3.358-7.5-7.5-7.5z" />
                <path d="m324.137 280.564h-176.355c-4.142 0-7.5 3.358-7.5 7.5s3.358 7.5 7.5 7.5h176.355c4.142 0 7.5-3.358 7.5-7.5s-3.358-7.5-7.5-7.5z" />
            </g>
        </g>
    </symbol>


    <!-- Unique MSISDNs -->
    <symbol id="activequeue" enable-background="new 0 0 24 24" viewBox="0 0 24 24">
        <title>Unique MSISDNs</title>
        <desc>Unique MSISDNs</desc>
        <path d="m23 0h-22c-.553 0-1 .448-1 1v4c0 .552.447 1 1 1h22c.553 0 1-.448 1-1v-4c0-.552-.447-1-1-1z" fill="#42a5f5" />
        <path d="m23 9h-22c-.553 0-1 .448-1 1v4c0 .552.447 1 1 1h22c.553 0 1-.448 1-1v-4c0-.552-.447-1-1-1z" fill="#90caf9" />
        <path d="m23 18h-22c-.553 0-1 .448-1 1v4c0 .552.447 1 1 1h22c.553 0 1-.448 1-1v-4c0-.552-.447-1-1-1z" fill="#90caf9" />
        <path d="m12 0h-11c-.553 0-1 .448-1 1v4c0 .552.447 1 1 1h11z" fill="#3990d5" />
        <path d="m12 9h-11c-.553 0-1 .448-1 1v4c0 .552.447 1 1 1h11z" />
        <path d="m12 18h-11c-.553 0-1 .448-1 1v4c0 .552.447 1 1 1h11z" />
    </symbol>


    <!-- Unique Email IDs -->
    <symbol id="emailid" enable-background="new 0 0 512 512"  viewBox="0 0 512 512" xmlns="http://www.w3.org/2000/svg">
        <title>Unique Email IDs</title>
        <desc>Unique Email IDs</desc>
        <path d="m472.02 284.42a25.21 25.21 0 0 0 -34.92-7.22l-2.11 1.38 27.69 42.15 2.11-1.38a25.2 25.2 0 0 0 7.23-34.93z" fill="#6addc7" />
        <path d="m335.84 58h-270a29.548 29.548 0 0 0 -29.84 29.63v361c0 16.56 13.27 30.37 29.84 30.37h270a30.466 30.466 0 0 0 30.16-30.37v-361c0-16.57-13.6-29.63-30.16-29.63zm-231.75 58.79a16.61 16.61 0 1 1 16.61-16.61 16.608 16.608 0 0 1 -16.61 16.61zm62.52 0a16.61 16.61 0 1 1 16.61-16.61 16.608 16.608 0 0 1 -16.61 16.61zm62.53 0a16.61 16.61 0 1 1 16.61-16.61 16.6 16.6 0 0 1 -16.61 16.61zm62.52 0a16.61 16.61 0 1 1 16.61-16.61 16.608 16.608 0 0 1 -16.61 16.61z" fill="#cae6ee" />
        <path d="m365.84 384.33-64.34 42.25-13.85-21.07 161.19-105.85 13.84 21.07z" fill="#e75163" />
        <path d="m448.84 299.66-161.19 105.85-13.85-21.08 92.04-60.44 69.15-45.41z" fill="#fb6771" />
        <path d="m273.8 384.43-.64 1.2-22.37 42.28 50.71-1.33z" fill="#c79a83" />
        <path d="m108.2 162.9a34.725 34.725 0 1 1 -34.72 34.73 34.729 34.729 0 0 1 34.72-34.73z" fill="#81c83d" />
        <path d="m108.2 262.9a34.725 34.725 0 1 1 -34.72 34.73 34.729 34.729 0 0 1 34.72-34.73z" fill="#81c83d" />
        <path d="m108.2 362.9a34.725 34.725 0 1 1 -34.72 34.73 34.729 34.729 0 0 1 34.72-34.73z" fill="#81c83d" />
        <path d="m66 448.63v-361a29.548 29.548 0 0 1 29.84-29.63h-30a29.548 29.548 0 0 0 -29.84 29.63v361c0 16.56 13.27 30.37 29.84 30.37h30c-16.57 0-29.84-13.81-29.84-30.37z" fill="#aac8ce" />
        <g fill="#284268">
            <path d="m178.2 192h150a6 6 0 0 0 0-12h-150a6 6 0 0 0 0 12z" />
            <path d="m117.614 184.889-13.331 12.745-5.407-5.407a6 6 0 1 0 -8.484 8.485l9.555 9.556a6 6 0 0 0 8.389.094l17.571-16.8a6 6 0 1 0 -8.293-8.673z" />
            <path d="m108.2 156.9a40.722 40.722 0 1 0 40.722 40.721 40.767 40.767 0 0 0 -40.722-40.721zm0 69.443a28.722 28.722 0 1 1 28.722-28.722 28.754 28.754 0 0 1 -28.722 28.726z" />
            <path d="m178.2 292h150a6 6 0 0 0 0-12h-150a6 6 0 0 0 0 12z" />
            <path d="m117.614 284.889-13.331 12.745-5.407-5.407a6 6 0 1 0 -8.484 8.485l9.555 9.556a6 6 0 0 0 8.389.094l17.571-16.8a6 6 0 1 0 -8.293-8.673z" />
            <path d="m108.2 256.9a40.722 40.722 0 1 0 40.722 40.721 40.767 40.767 0 0 0 -40.722-40.721zm0 69.443a28.722 28.722 0 1 1 28.722-28.722 28.754 28.754 0 0 1 -28.722 28.726z" />
            <path d="m117.614 384.889-13.331 12.745-5.407-5.407a6 6 0 1 0 -8.484 8.485l9.555 9.556a6 6 0 0 0 8.389.094l17.571-16.8a6 6 0 1 0 -8.293-8.673z" />
            <path d="m108.2 356.9a40.722 40.722 0 1 0 40.722 40.721 40.767 40.767 0 0 0 -40.722-40.721zm0 69.443a28.722 28.722 0 1 1 28.722-28.722 28.754 28.754 0 0 1 -28.722 28.726z" />
            <path d="m178.2 212h80a6 6 0 0 0 0-12h-80a6 6 0 0 0 0 12z" />
            <path d="m178.2 312h80a6 6 0 0 0 0-12h-80a6 6 0 0 0 0 12z" />
            <path d="m59 94.1a6 6 0 0 0 -6 6v6.3a6 6 0 0 0 12 0v-6.3a6 6 0 0 0 -6-6z" />
            <path d="m59 119.391a6 6 0 0 0 -6 6v58a6 6 0 0 0 12 0v-58a6 6 0 0 0 -6-6z" />
            <path d="m457.271 267.7a31.02 31.02 0 0 0 -23.471 4.48l-61.8 40.586v-225.141c0-19.85-16.313-35.625-36.164-35.625h-37.836v-18.625a6 6 0 0 0 -12 0v18.625h-51v-18.625a6 6 0 0 0 -12 0v18.625h-50v-18.625a6 6 0 0 0 -12 0v18.625h-51v-18.625a6 6 0 0 0 -12 0v18.625h-32.164a35.582 35.582 0 0 0 -35.836 35.625v361c0 19.851 15.985 36.375 35.836 36.375h270c19.851 0 36.164-16.524 36.164-36.375v-61.165l96.086-63.1a31.217 31.217 0 0 0 -10.815-56.66zm-165.61-178.126a10.61 10.61 0 1 1 -10.61 10.61 10.621 10.621 0 0 1 10.61-10.61zm-62.523 0a10.61 10.61 0 1 1 -10.611 10.61 10.622 10.622 0 0 1 10.611-10.61zm-62.525 0a10.61 10.61 0 1 1 -10.613 10.61 10.622 10.622 0 0 1 10.613-10.61zm-62.523 0a10.61 10.61 0 1 1 -10.611 10.61 10.622 10.622 0 0 1 10.611-10.61zm255.91 359.051a24.491 24.491 0 0 1 -24.164 24.375h-270c-13.236 0-23.836-11.141-23.836-24.375v-361a23.57 23.57 0 0 1 23.836-23.625h32.164v14.388c-9 2.636-16.565 11.406-16.565 21.8a22.605 22.605 0 1 0 45.21 0 22.185 22.185 0 0 0 -16.645-21.8v-14.388h51v14.388a22.324 22.324 0 0 0 -16.8 21.8 22.634 22.634 0 0 0 45.268 0 23.2 23.2 0 0 0 -16.468-21.8v-14.388h50v14.388c-9 2.636-16.541 11.406-16.541 21.8a22.6 22.6 0 1 0 45.2 0 22.2 22.2 0 0 0 -16.659-21.8v-14.388h51v14.388a22.3 22.3 0 0 0 -16.779 21.8 22.631 22.631 0 0 0 45.262 0c0-10.39-7.483-19.16-16.483-21.8v-14.388h37.836c13.233 0 24.164 10.392 24.164 23.625v233.021l-22.537 14.8a6 6 0 0 0 -1.439 8.7 6 6 0 0 0 8.026 1.327l89.218-58.589 7.257 11.046-151.157 99.27-7.259-11.047 28.4-18.647a6 6 0 0 0 -6.587-10.031l-33.389 21.925c-.061.041-.117.092-.179.135-.152.108-.3.216-.446.338-.048.04-.09.086-.135.128h-91.573a6 6 0 0 0 0 12h84.81l-4.249 8.028c-.185-.017-.371-.028-.561-.028h-80a6 6 0 0 0 0 12h74.225l-6.937 13.105a6 6 0 0 0 5.3 8.807h.158l50.707-1.329c.123 0 .244-.024.366-.034s.261-.017.391-.037c.159-.024.313-.065.467-.1.114-.027.229-.046.343-.08a5.949 5.949 0 0 0 .767-.289c.061-.027.118-.065.178-.1a6 6 0 0 0 .566-.314c.02-.013.041-.02.059-.033l55.21-36.256zm-69.439-27.757-29.667.777 13.462-25.438zm12.655-2.593-.461-.7-6.8-10.344 151.157-99.265 7.258 11.045zm161.013-106.12-20.756-31.589a19.363 19.363 0 0 1 16.073.484 17.179 17.179 0 0 1 3.973 2.649 19.275 19.275 0 0 1 .71 28.456z" />
        </g>
    </symbol>
    <!-- Total Campaigns -->
    <symbol id="campaign" viewBox="-2 0 512 512">
        <title>Total Campaigns</title>
        <desc>Total Campaigns</desc>
        <path d="m496.457031 7.5h-483.957031c-2.75 0-5 2.25-5 5v370.054688c0 2.75 2.25 5 5 5h29.472656v-7.863282c0-2.226562 1.796875-4.03125 4.011719-4.03125h16.265625c1.421875-5.792968 3.691406-11.304687 6.761719-16.378906l-11.496094-11.527344c-.753906-.757812-1.175781-1.78125-1.175781-2.847656 0-1.070312.421875-2.09375 1.175781-2.847656l14.199219-14.238282c.78125-.789062 1.808594-1.179687 2.839844-1.179687 1.023437 0 2.050781.390625 2.835937 1.179687l11.496094 11.527344c5.0625-3.078125 10.558593-5.355468 16.335937-6.78125l-.003906-16.308594c0-2.226562 1.800781-4.027343 4.015625-4.027343h20.082031c2.21875 0 4.015625 1.804687 4.015625 4.027343v16.308594c5.773438 1.425782 11.269531 3.703125 16.332031 6.78125l5.203126-5.214844c19.433593-35.253906 56.753906-59.117187 99.613281-59.117187 42.855469 0 80.179687 23.863281 99.613281 59.113281l5.203125 5.21875c5.0625-3.078125 10.554687-5.355468 16.332031-6.78125v-16.308594c0-2.226562 1.796875-4.027343 4.015625-4.027343h20.078125c2.21875 0 4.015625 1.804687 4.015625 4.027343v16.308594c5.777344 1.425782 11.273438 3.703125 16.335938 6.78125l11.496093-11.527344c.78125-.789062 1.808594-1.179687 2.835938-1.179687s2.058594.390625 2.839844 1.179687l14.199218 14.238282c.753907.753906 1.175782 1.777344 1.175782 2.847656 0 1.066406-.421875 2.089844-1.175782 2.847656l-11.496093 11.527344c3.066406 5.074219 5.339843 10.585938 6.761719 16.378906h16.261718c2.21875 0 4.015625 1.804688 4.015625 4.03125v7.863282h29.472657c2.75 0 5-2.25 5-5v-370.054688c-.003907-2.75-2.253907-5-5.003907-5zm0 0" fill="#c7fffd" />
        <path d="m462.972656 375.660156h-16.265625c-1.421875-5.796875-3.691406-11.304687-6.761719-16.378906l11.496094-11.527344c.753906-.757812 1.179688-1.78125 1.179688-2.851562 0-1.066406-.425782-2.089844-1.179688-2.847656l-14.199218-14.238282c-.78125-.785156-1.808594-1.179687-2.839844-1.179687-1.023438 0-2.050782.394531-2.835938 1.179687l-11.496094 11.527344c-5.0625-3.074219-10.558593-5.355469-16.332031-6.777344v-16.308594c0-2.226562-1.800781-4.027343-4.015625-4.027343h-20.082031c-2.21875 0-4.015625 1.800781-4.015625 4.027343v16.308594c-5.773438 1.421875-11.269531 3.703125-16.332031 6.777344l-5.203125-5.214844c9.082031 16.476563 14.265625 35.441406 14.265625 55.628906 0 20.183594-5.179688 39.148438-14.265625 55.625l5.203125-5.214843c5.058593 3.074219 10.554687 5.355469 16.332031 6.777343v16.3125c0 2.222657 1.796875 4.027344 4.015625 4.027344h20.082031c2.214844 0 4.015625-1.804687 4.015625-4.027344v-16.3125c5.777344-1.421874 11.273438-3.703124 16.332031-6.777343l11.496094 11.527343c.785156.785157 1.808594 1.179688 2.835938 1.179688 1.03125 0 2.058594-.394531 2.839844-1.179688l14.199218-14.238281c.753906-.753906 1.179688-1.78125 1.179688-2.847656 0-1.070313-.425782-2.089844-1.179688-2.847656l-11.496094-11.527344c3.070313-5.078125 5.339844-10.585937 6.761719-16.378906h16.265625c2.214844 0 4.011719-1.808594 4.011719-4.03125v-20.132813c0-2.226562-1.796875-4.03125-4.011719-4.03125zm0 0" fill="#9ea7af" />
        <path d="m389.683594 363.78125c-9.367188 0-17.570313 4.988281-22.121094 12.457031.519531 4.433594.792969 8.945313.792969 13.519531 0 4.574219-.273438 9.082032-.792969 13.519532 4.550781 7.46875 12.753906 12.453125 22.121094 12.453125 14.304687 0 25.898437-11.628907 25.898437-25.972657 0-14.347656-11.59375-25.976562-25.898437-25.976562zm0 0" fill="#e6e9ed" />
        <path d="m140.601562 389.757812c0-20.1875 5.179688-39.148437 14.261719-55.628906l-5.199219 5.21875c-5.0625-3.078125-10.558593-5.355468-16.335937-6.78125v-16.308594c0-2.226562-1.796875-4.027343-4.015625-4.027343h-20.078125c-2.21875 0-4.015625 1.804687-4.015625 4.027343v16.308594c-5.777344 1.425782-11.269531 3.703125-16.332031 6.78125l-11.496094-11.527344c-.785156-.789062-1.8125-1.179687-2.839844-1.179687-1.027343 0-2.058593.390625-2.839843 1.179687l-14.195313 14.238282c-.753906.753906-1.179687 1.777344-1.179687 2.847656 0 1.066406.425781 2.089844 1.175781 2.847656l11.496093 11.527344c-3.066406 5.074219-5.339843 10.585938-6.761718 16.378906h-16.261719c-2.214844 0-4.011719 1.804688-4.011719 4.03125v20.136719c0 2.222656 1.796875 4.027344 4.011719 4.027344h16.265625c1.417969 5.792969 3.691406 11.304687 6.757812 16.378906l-11.496093 11.527344c-.75.757812-1.175781 1.78125-1.175781 2.847656 0 1.070313.425781 2.097656 1.179687 2.847656l14.195313 14.238281c.78125.789063 1.8125 1.179688 2.839843 1.179688 1.027344 0 2.054688-.390625 2.839844-1.179688l11.496094-11.527343c5.0625 3.074219 10.554687 5.355469 16.332031 6.78125v16.308593c0 2.222657 1.800781 4.027344 4.015625 4.027344h20.082031c2.21875 0 4.015625-1.804687 4.015625-4.027344v-16.308593c5.777344-1.425781 11.269531-3.707031 16.332031-6.78125l5.199219 5.214843c-9.082031-16.480468-14.261719-35.441406-14.261719-55.625zm0 0" fill="#9ea7af" />
        <path d="m140.601562 389.757812c0-4.574218.273438-9.082031.789063-13.519531-4.546875-7.46875-12.75-12.457031-22.117187-12.457031-14.304688 0-25.898438 11.628906-25.898438 25.976562 0 14.34375 11.59375 25.972657 25.898438 25.972657 9.367187 0 17.570312-4.984375 22.117187-12.457031-.515625-4.433594-.789063-8.941407-.789063-13.515626zm0 0" fill="#e6e9ed" />
        <path d="m368.355469 389.757812c0 63.371094-50.988281 114.742188-113.878907 114.742188-62.890624 0-113.875-51.371094-113.875-114.742188 0-63.371093 50.984376-114.742187 113.875-114.742187 62.890626 0 113.878907 51.371094 113.878907 114.742187zm0 0" fill="#f7931e" />
        <path d="m254.476562 474.304688c-46.269531 0-83.90625-37.925782-83.90625-84.546876 0-46.621093 37.640626-84.546874 83.90625-84.546874 46.269532 0 83.910157 37.925781 83.910157 84.546874 0 46.621094-37.640625 84.546876-83.910157 84.546876zm0 0" fill="#fff" />
        <path d="m254.476562 402.347656c-6.972656 0-12.644531-5.648437-12.644531-12.589844 0-6.941406 5.671875-12.585937 12.644531-12.585937 6.972657 0 12.648438 5.644531 12.648438 12.585937 0 6.941407-5.675781 12.589844-12.648438 12.589844zm0 0" fill="#ef5050" />
        <path d="m95.9375 157.34375c0 1.648438-1.351562 3-3 3h-29.339844c-1.652344 0-3-1.351562-3-3v-95.71875c0-1.648438 1.347656-3 3-3h29.339844c1.648438 0 3 1.351562 3 3zm0 0" fill="#fff" />
        <path d="m95.9375 157.34375c0 1.648438-1.351562 3-3 3h-29.339844c-1.652344 0-3-1.351562-3-3v-95.71875c0-1.648438 1.347656-3 3-3h29.339844c1.648438 0 3 1.351562 3 3zm0 0" fill="#f7931e" />
        <path d="m162.199219 157.34375c0 1.648438-1.347657 3-3 3h-29.339844c-1.648437 0-3-1.351562-3-3v-58.160156c0-1.652344 1.351563-3 3-3h29.339844c1.652343 0 3 1.347656 3 3zm0 0" fill="#fb8276" />
        <path d="m228.460938 157.34375c0 1.648438-1.347657 3-3 3h-29.339844c-1.648438 0-3-1.351562-3-3v-95.71875c0-1.648438 1.351562-3 3-3h29.339844c1.652343 0 3 1.351562 3 3zm0 0" fill="#fff" />
        <path d="m228.460938 157.34375c0 1.648438-1.347657 3-3 3h-29.339844c-1.648438 0-3-1.351562-3-3v-95.71875c0-1.648438 1.351562-3 3-3h29.339844c1.652343 0 3 1.351562 3 3zm0 0" fill="#89c947" />
        <path d="m294.726562 157.34375c0 1.648438-1.347656 3-3 3h-29.339843c-1.648438 0-3-1.351562-3-3v-71.027344c0-1.648437 1.351562-3 3-3h29.339843c1.652344 0 3 1.351563 3 3zm0 0" fill="#0291c9" />
        <path d="m448.359375 109.480469c0-27.695313-22.386719-50.144531-50.003906-50.144531-27.617188 0-50.003907 22.449218-50.003907 50.144531 0 27.699219 22.386719 50.148437 50.003907 50.148437 27.617187 0 50.003906-22.449218 50.003906-50.148437zm0 0" fill="#89c947" />
        <path d="m448.359375 109.480469c0-27.695313-22.386719-50.144531-50.003906-50.144531v50.144531zm0 0" fill="#ef5050" />
        <path d="m496.457031 0h-483.957031c-6.894531 0-12.5 5.605469-12.5 12.5v370.054688c0 6.894531 5.605469 12.5 12.5 12.5h21.972656v4.773437c0 6.355469 5.164063 11.527344 11.511719 11.527344h10.652344c.882812 2.578125 1.921875 5.097656 3.113281 7.542969l-7.5625 7.582031c-2.160156 2.179687-3.351562 5.066406-3.351562 8.128906 0 3.039063 1.230468 6.011719 3.367187 8.144531l14.191406 14.230469c2.175781 2.1875 5.070313 3.390625 8.15625 3.390625 3.078125 0 5.96875-1.199219 8.148438-3.382812l7.53125-7.550782c2.429687 1.1875 4.925781 2.226563 7.488281 3.105469v10.710937c0 6.355469 5.164062 11.527344 11.515625 11.527344h20.078125c6.351562 0 11.515625-5.171875 11.515625-11.527344v-10.710937c2.5625-.878906 5.0625-1.917969 7.492187-3.105469l.601563.601563c20.894531 36.972656 60.382813 61.957031 105.554687 61.957031 45.175782 0 84.660157-24.984375 105.558594-61.953125l.601563-.605469c2.429687 1.191406 4.929687 2.226563 7.492187 3.109375v10.707031c0 6.355469 5.164063 11.527344 11.515625 11.527344h20.078125c6.351563 0 11.515625-5.171875 11.515625-11.527344v-10.707031c2.5625-.882812 5.0625-1.917969 7.492188-3.109375l7.527343 7.550782c2.175782 2.183593 5.070313 3.382812 8.148438 3.382812 3.085938 0 5.980469-1.203125 8.148438-3.382812l14.191406-14.230469c2.144531-2.144531 3.375-5.113281 3.375-8.148438 0-3.066406-1.191406-5.957031-3.363282-8.144531l-7.550781-7.570312c1.191407-2.445313 2.230469-4.960938 3.113281-7.542969h10.652344c6.347656 0 11.515625-5.171875 11.515625-11.527344v-4.773437h21.972657c6.890624 0 12.5-5.605469 12.5-12.5v-370.054688c-.003907-6.894531-5.613282-12.5-12.503907-12.5zm-362.8125 401.265625c-3.375 4.238281-8.558593 6.964844-14.371093 6.964844-10.144532 0-18.398438-8.285157-18.398438-18.472657s8.253906-18.476562 18.398438-18.476562c5.8125 0 10.996093 2.730469 14.371093 6.96875-.355469 3.789062-.542969 7.628906-.542969 11.507812 0 3.882813.1875 7.71875.542969 11.507813zm-14.371093-44.984375c-18.417969 0-33.398438 15.019531-33.398438 33.476562 0 18.457032 14.984375 33.472657 33.398438 33.472657 6.292968 0 12.179687-1.757813 17.207031-4.800781 1.429687 5.972656 3.300781 11.773437 5.570312 17.375-3.347656 1.664062-6.867187 2.960937-10.515625 3.859374-3.351562.824219-5.707031 3.832032-5.707031 7.28125v12.839844h-13.109375v-12.839844c0-3.449218-2.355469-6.457031-5.707031-7.28125-5.03125-1.238281-9.820313-3.226562-14.234375-5.90625-2.957032-1.796874-6.761719-1.335937-9.203125 1.113282l-9.023438 9.050781-9.285156-9.3125 9.054687-9.078125c2.433594-2.441406 2.890626-6.226562 1.105469-9.175781-2.667969-4.421875-4.652343-9.226563-5.894531-14.285157-.820312-3.355468-3.828125-5.714843-7.28125-5.714843h-12.777344v-13.195313h12.773438c3.457031 0 6.464844-2.359375 7.285156-5.714844 1.242188-5.058593 3.226562-9.867187 5.894531-14.285156 1.785157-2.949218 1.328125-6.734375-1.105469-9.175781l-9.054687-9.078125 9.285156-9.3125 9.023438 9.046875c2.445312 2.449219 6.246093 2.910156 9.207031 1.113281 4.40625-2.675781 9.195312-4.664062 14.234375-5.90625 3.351563-.828125 5.707031-3.832031 5.703125-7.285156v-12.832031h13.109375v12.835937c0 3.449219 2.355469 6.453125 5.703125 7.28125 3.65625.898438 7.175781 2.199219 10.519531 3.863282-2.269531 5.597656-4.140625 11.398437-5.570312 17.375-5.027344-3.046876-10.914063-4.804688-17.207031-4.804688zm135.203124 140.71875c-58.65625 0-106.375-48.109375-106.375-107.242188 0-59.132812 47.71875-107.242187 106.375-107.242187s106.378907 48.109375 106.378907 107.242187c0 59.132813-47.722657 107.242188-106.378907 107.242188zm205.007813-100.644531h-12.777344c-3.453125 0-6.460937 2.359375-7.28125 5.714843-1.242187 5.058594-3.226562 9.863282-5.898437 14.285157-1.78125 2.949219-1.324219 6.734375 1.109375 9.175781l9.054687 9.078125-9.285156 9.3125-9.023438-9.050781c-2.441406-2.449219-6.246093-2.910156-9.203124-1.113282-4.414063 2.679688-9.203126 4.667969-14.234376 5.90625-3.351562.824219-5.707031 3.832032-5.707031 7.28125v12.839844h-13.113281v-12.839844c0-3.449218-2.355469-6.457031-5.707031-7.28125-3.648438-.898437-7.167969-2.195312-10.511719-3.863281 2.269531-5.597656 4.136719-11.398437 5.566406-17.371093 5.03125 3.042968 10.917969 4.800781 17.207032 4.800781 18.417968 0 33.398437-15.015625 33.398437-33.472657 0-18.457031-14.980469-33.476562-33.398437-33.476562-6.289063 0-12.175782 1.757812-17.207032 4.804688-1.429687-5.976563-3.296875-11.777344-5.566406-17.375 3.339844-1.664063 6.859375-2.964844 10.515625-3.863282 3.351563-.828125 5.707031-3.832031 5.703125-7.28125v-12.835937h13.109375v12.835937c0 3.449219 2.355469 6.453125 5.707031 7.28125 5.039063 1.242188 9.828125 3.230469 14.234375 5.90625 2.957031 1.796875 6.761719 1.335938 9.203125-1.113281l9.023438-9.046875 9.285156 9.308594-9.054688 9.082031c-2.433593 2.441406-2.890624 6.226563-1.105468 9.175781 2.667968 4.417969 4.652344 9.222656 5.894531 14.285156.820313 3.355469 3.828125 5.714844 7.28125 5.714844h12.777344v13.195313zm-84.171875-18.105469c3.375-4.238281 8.558594-6.96875 14.371094-6.96875 10.144531 0 18.398437 8.289062 18.398437 18.476562s-8.253906 18.472657-18.398437 18.472657c-5.816406 0-10.996094-2.726563-14.371094-6.964844.351562-3.789063.542969-7.625.542969-11.507813 0-3.878906-.1875-7.71875-.542969-11.507812zm118.644531 1.804688h-19.472656v-.363282c0-6.359375-5.164063-11.53125-11.515625-11.53125h-10.652344c-.878906-2.578125-1.921875-5.097656-3.113281-7.542968l7.5625-7.578126c2.164063-2.179687 3.355469-5.066406 3.355469-8.132812 0-3.074219-1.195313-5.964844-3.367188-8.144531l-14.1875-14.230469c-2.175781-2.1875-5.074218-3.390625-8.160156-3.390625-3.082031 0-5.976562 1.199219-8.148438 3.382813l-7.53125 7.546874c-2.425781-1.1875-4.925781-2.222656-7.488281-3.105468v-10.707032c0-6.355468-5.167969-11.527343-11.515625-11.527343h-20.082031c-6.347656 0-11.515625 5.171875-11.515625 11.527343v10.707032c-2.558594.882812-5.0625 1.921875-7.488281 3.105468l-.605469-.605468c-20.898438-36.964844-60.382812-61.949219-105.554688-61.949219-45.171874 0-84.652343 24.984375-105.550781 61.949219l-.605469.605468c-2.429687-1.1875-4.929687-2.222656-7.492187-3.105468v-10.707032c0-6.355468-5.164063-11.527343-11.515625-11.527343h-20.078125c-6.351563 0-11.515625 5.171875-11.515625 11.527343v10.707032c-2.5625.882812-5.0625 1.917968-7.492188 3.105468l-7.527343-7.550781c-2.175781-2.179687-5.070313-3.382812-8.148438-3.382812-3.085937 0-5.984375 1.207031-8.152343 3.386719l-14.195313 14.238281c-2.171875 2.175781-3.367187 5.066406-3.367187 8.144531 0 3.0625 1.191406 5.949219 3.363281 8.144531l7.550781 7.566407c-1.191406 2.445312-2.230469 4.964843-3.113281 7.542968h-10.652344c-6.347656 0-11.511719 5.171875-11.511719 11.53125v.363282h-19.472656v-365.054688h478.957031zm0 0" />
        <path d="m323.726562 341.46875c-3.605468 2.042969-4.875 6.617188-2.832031 10.222656 6.535157 11.550782 9.992188 24.714844 9.992188 38.066406 0 42.480469-34.277344 77.046876-76.410157 77.046876-42.128906 0-76.40625-34.566407-76.40625-77.046876 0-42.484374 34.277344-77.046874 76.40625-77.046874 15.714844 0 30.816407 4.792968 43.679688 13.859374 3.382812 2.390626 8.0625 1.582032 10.453125-1.804687 2.386719-3.386719 1.578125-8.066406-1.808594-10.453125-15.40625-10.863281-33.496093-16.601562-52.320312-16.601562-50.40625 0-91.410157 41.292968-91.410157 92.046874 0 50.753907 41.003907 92.046876 91.410157 92.046876 50.402343 0 91.40625-41.292969 91.40625-92.046876 0-15.9375-4.128907-31.65625-11.9375-45.453124-2.042969-3.605469-6.617188-4.875-10.222657-2.835938zm0 0" />
        <path d="m302.0625 345.25c-2.808594-3.046875-7.554688-3.234375-10.597656-.429688l-28.832032 26.585938c-2.496093-1.105469-5.25-1.734375-8.15625-1.734375-2.625 0-5.128906.519531-7.433593 1.433594l-18.316407-18.289063c-2.929687-2.925781-7.675781-2.921875-10.605468.007813-2.925782 2.933593-2.921875 7.683593.007812 10.609375l18.035156 18.007812c-1.164062 2.539063-1.832031 5.347656-1.832031 8.316406 0 11.078126 9.039063 20.089844 20.144531 20.089844 11.109376 0 20.148438-9.011718 20.148438-20.089844 0-2.691406-.542969-5.261718-1.511719-7.609374l28.519531-26.300782c3.046876-2.808594 3.238282-7.550781.429688-10.597656zm-47.585938 49.597656c-2.835937 0-5.144531-2.285156-5.144531-5.089844 0-2.804687 2.308594-5.085937 5.144531-5.085937 2.839844 0 5.148438 2.28125 5.148438 5.085937 0 2.804688-2.308594 5.089844-5.148438 5.089844zm0 0" />
        <path d="m185.03125 389.128906v1.257813c0 4.144531 3.359375 7.5 7.5 7.5s7.5-3.355469 7.5-7.5v-1.257813c0-4.144531-3.359375-7.5-7.5-7.5s-7.5 3.355469-7.5 7.5zm0 0" />
        <path d="m308.925781 390.386719c0 4.144531 3.359375 7.5 7.5 7.5s7.5-3.355469 7.5-7.5v-1.257813c0-4.144531-3.359375-7.5-7.5-7.5s-7.5 3.355469-7.5 7.5zm0 0" />
        <path d="m253.84375 335.597656h1.265625c4.144531 0 7.5-3.355468 7.5-7.5 0-4.144531-3.355469-7.5-7.5-7.5h-1.265625c-4.144531 0-7.5 3.355469-7.5 7.5 0 4.140625 3.355469 7.5 7.5 7.5zm0 0" />
        <path d="m253.84375 443.914062c-4.144531 0-7.5 3.359376-7.5 7.5 0 4.144532 3.355469 7.5 7.5 7.5h1.265625c4.144531 0 7.5-3.355468 7.5-7.5 0-4.140624-3.355469-7.5-7.5-7.5zm0 0" />
        <path d="m60.597656 167.84375h231.128906c5.789063 0 10.5-4.710938 10.5-10.5v-71.027344c0-5.789062-4.710937-10.5-10.5-10.5h-29.339843c-5.789063 0-10.5 4.710938-10.5 10.5v66.523438h-15.925781v-39.839844c0-4.144531-3.355469-7.5-7.5-7.5-4.140626 0-7.5 3.355469-7.5 7.5v39.84375h-20.339844v-86.71875h20.339844v11.875c0 4.140625 3.359374 7.5 7.5 7.5 4.144531 0 7.5-3.359375 7.5-7.5v-16.375c0-5.789062-4.710938-10.5-10.5-10.5h-29.339844c-5.785156 0-10.5 4.710938-10.5 10.5v91.21875h-15.921875v-53.660156c0-5.792969-4.710938-10.5-10.5-10.5h-29.339844c-5.789063 0-10.5 4.707031-10.5 10.5v53.660156h-15.921875v-91.21875c0-5.789062-4.710938-10.5-10.5-10.5h-29.339844c-5.789062 0-10.5 4.710938-10.5 10.5v98.71875c0 4.140625 3.355469 7.5 7.5 7.5zm206.289063-77.027344h20.339843v62.023438h-20.339843zm-132.527344 12.867188h20.339844v49.160156h-20.339844zm-66.261719-37.558594h20.339844v86.71875h-20.339844zm0 0" />
        <path d="m160.117188 186.902344h-99.460938c-4.144531 0-7.5 3.359375-7.5 7.5 0 4.144531 3.355469 7.5 7.5 7.5h99.460938c4.144531 0 7.5-3.355469 7.5-7.5 0-4.140625-3.355469-7.5-7.5-7.5zm0 0" />
        <path d="m160.117188 212.117188h-44.640626c-4.140624 0-7.5 3.355468-7.5 7.5 0 4.140624 3.359376 7.5 7.5 7.5h44.640626c4.144531 0 7.5-3.359376 7.5-7.5 0-4.144532-3.355469-7.5-7.5-7.5zm0 0" />
        <path d="m60.65625 227.117188h18.820312c4.144532 0 7.5-3.359376 7.5-7.5 0-4.144532-3.355468-7.5-7.5-7.5h-18.820312c-4.144531 0-7.5 3.355468-7.5 7.5 0 4.140624 3.355469 7.5 7.5 7.5zm0 0" />
        <path d="m160.117188 237.324219h-99.460938c-4.144531 0-7.5 3.359375-7.5 7.5 0 4.144531 3.355469 7.5 7.5 7.5h99.460938c4.144531 0 7.5-3.355469 7.5-7.5 0-4.140625-3.355469-7.5-7.5-7.5zm0 0" />
        <path d="m294.726562 186.902344h-99.609374c-4.140626 0-7.5 3.359375-7.5 7.5 0 4.144531 3.359374 7.5 7.5 7.5h99.609374c4.140626 0 7.5-3.355469 7.5-7.5 0-4.140625-3.359374-7.5-7.5-7.5zm0 0" />
        <path d="m294.726562 212.117188h-99.609374c-4.140626 0-7.5 3.355468-7.5 7.5 0 4.140624 3.359374 7.5 7.5 7.5h99.609374c4.140626 0 7.5-3.359376 7.5-7.5 0-4.144532-3.359374-7.5-7.5-7.5zm0 0" />
        <path d="m294.726562 237.324219h-99.609374c-4.140626 0-7.5 3.359375-7.5 7.5 0 4.144531 3.359374 7.5 7.5 7.5h99.609374c4.140626 0 7.5-3.355469 7.5-7.5 0-4.140625-3.359374-7.5-7.5-7.5zm0 0" />
        <path d="m398.355469 167.132812c31.707031 0 57.503906-25.863281 57.503906-57.652343 0-31.785157-25.796875-57.644531-57.503906-57.644531s-57.503907 25.859374-57.503907 57.644531c0 31.789062 25.796876 57.652343 57.503907 57.652343zm7.5-99.621093c17.441406 3.132812 31.222656 16.964843 34.332031 34.472656h-34.332031zm-15 0v41.972656c0 4.140625 3.359375 7.5 7.5 7.5h41.832031c-3.542969 19.949219-20.949219 35.148437-41.832031 35.148437-23.4375 0-42.503907-19.132812-42.503907-42.648437 0-20.949219 15.132813-38.40625 35.003907-41.972656zm0 0" />
        <path d="m445.0625 237.324219h-4.105469v-43.105469c0-4.144531-3.355469-7.5-7.5-7.5-4.140625 0-7.5 3.355469-7.5 7.5v43.105469h-6.988281v-23.722657c0-4.144531-3.359375-7.5-7.5-7.5-4.144531 0-7.5 3.355469-7.5 7.5v23.726563h-6.984375v-46.339844c0-4.144531-3.359375-7.5-7.5-7.5s-7.5 3.355469-7.5 7.5v46.339844h-6.992187v-38.804687c0-4.140626-3.355469-7.5-7.5-7.5-4.140626 0-7.5 3.359374-7.5 7.5v38.804687h-8.347657c-4.140625 0-7.5 3.355469-7.5 7.5 0 4.140625 3.359375 7.5 7.5 7.5h93.417969c4.140625 0 7.5-3.359375 7.5-7.5 0-4.144531-3.359375-7.503906-7.5-7.503906zm0 0" />
    </symbol>

</svg>